<svg width="181" height="179" viewBox="0 0 181 179" fill="none" xmlns="http://www.w3.org/2000/svg">
<path d="M90.5 162.219C49.9553 162.219 16.9688 129.597 16.9688 89.5C16.9688 49.4033 49.9553 16.7812 90.5 16.7812C131.045 16.7812 164.031 49.4033 164.031 89.5C164.031 129.597 131.045 162.219 90.5 162.219ZM90.5 27.9688C56.209 27.9688 28.2812 55.5879 28.2812 89.5C28.2812 123.412 56.209 151.031 90.5 151.031C124.791 151.031 152.719 123.43 152.719 89.5C152.719 55.5704 124.809 27.9688 90.5 27.9688Z" fill="#CF815F"/>
<path d="M114.422 102.086C108.271 102.086 102.329 99.3869 97.687 94.4889C93.0958 89.564 90.3507 83.2313 89.9096 76.547C89.39 69.3101 91.6348 62.65 96.2305 57.8009C100.826 52.9518 107.25 50.3438 114.422 50.3438C121.542 50.3438 127.987 53.0078 132.568 57.8464C137.15 62.685 139.451 69.3835 138.932 76.554C138.482 83.2342 135.738 89.5621 131.154 94.4889C126.509 99.3869 120.57 102.086 114.422 102.086ZM57.9129 103.261C47.3923 103.261 38.1408 93.6429 37.2924 81.8191C36.8575 75.7638 38.7595 70.1666 42.6552 66.0587C46.551 61.9508 51.9244 59.7657 57.9094 59.7657C63.8944 59.7657 69.2643 62.0172 73.1353 66.1076C77.0063 70.1981 78.9683 75.8338 78.5264 81.8401C77.6639 93.6464 68.4159 103.261 57.9129 103.261ZM148.607 124.209C148.045 122.566 146.677 120.815 143.934 119.154C135.64 114.144 125.438 111.494 114.422 111.494C103.615 111.494 93.1302 114.256 84.8932 119.273C75.6135 124.926 69.3775 133.17 66.864 143.109C66.2701 145.448 65.4039 149.801 66.3302 152.237C81.1937 157.827 97.569 158.084 112.604 152.962C127.639 147.841 140.381 137.666 148.611 124.209H148.607ZM57.8458 140.323C60.3451 130.46 65.6655 122.237 73.9201 115.588C74.3104 115.269 74.6071 114.853 74.7794 114.383C74.9517 113.913 74.9933 113.405 74.8998 112.913C74.8062 112.422 74.5811 111.964 74.2477 111.588C73.9144 111.211 73.4851 110.93 73.0045 110.774C68.7623 109.435 63.9192 108.718 57.9129 108.718C49.4922 108.718 40.5518 110.973 33.8244 115.07C31.9154 116.235 30.0418 116.682 28.5994 117.081C34.3903 129.738 43.9936 140.317 56.0959 147.371L56.7287 147.322C56.867 144.958 57.2412 142.614 57.8458 140.323Z" fill="#CF815F"/>
</svg>
